<svg width="27" height="41" viewBox="0 0 27 41" fill="none" xmlns="http://www.w3.org/2000/svg">
  <g clip-path="url(#clip0_26_2)">
    <path d="M13.5 40.05C19.299 40.05 24 37.6995 24 34.8C24 31.9006 19.299 29.55 13.5 29.55C7.70101 29.55 3 31.9006 3 34.8C3 37.6995 7.70101 40.05 13.5 40.05Z" fill="url(#paint0_radial_26_2)" />
    <path d="M27 13.5C27 19.07 20.25 27 14.75 34.5C14.02 35.5 12.98 35.5 12.25 34.5C6.75 27 0 19.22 0 13.5C0 6.04 6.04 0 13.5 0C20.96 0 27 6.04 27 13.5Z" fill="#E2E8F0" />
    <path opacity="0.25" d="M13.5 0C6.04 0 0 6.04 0 13.5C0 19.22 6.75 27 12.25 34.5C13 35.52 14.02 35.5 14.75 34.5C20.25 27 27 19.07 27 13.5C27 6.04 20.96 0 13.5 0ZM13.5 1C20.42 1 26 6.58 26 13.5C26 15.9 24.5 19.18 22.22 22.74C19.95 26.3 16.71 30.14 13.94 33.91C13.74 34.18 13.61 34.32 13.5 34.44C13.39 34.32 13.26 34.18 13.06 33.91C10.28 30.13 7.41 26.31 5.02 22.77C2.62 19.23 1 15.95 1 13.5C1 6.58 6.58 1 13.5 1Z" fill="black" />
    <path d="M13.5 23C18.7467 23 23 18.7467 23 13.5C23 8.25329 18.7467 4 13.5 4C8.25329 4 4 8.25329 4 13.5C4 18.7467 8.25329 23 13.5 23Z" fill="white" />
    <path d="M9.43701 5.41167L11.7259 6.55612L12.1576 6.05417L9.61771 5.0603L9.43701 5.41167Z" fill="#B0182A" />
    <path d="M12.1577 6.0541L12.8404 6.55605L15.9224 5.39152L15.5409 5L12.1577 6.0541Z" fill="#EA5B67" />
    <path d="M7.17871 11.0335L7.9216 11.3648L9.51781 9.2365L9.00582 8.88513L7.17871 11.0335Z" fill="#1DBBEE" />
    <path d="M5.02008 10.8929L5 11.2644L7.13831 11.666L7.17847 11.0335L5.02008 10.8929Z" fill="#00758E" />
    <path d="M16.4949 8.68433L21.1229 10.8126L21.133 11.4149L13.5435 22.9096L13.1921 23L13.1419 22.9799L13.0415 22.7189L16.0934 8.91522L16.4949 8.68433Z" fill="#78B94D" />
    <path d="M18.0508 11.6761L13.1919 23.0001L13.5433 22.9097L21.1328 11.415L18.0508 11.6761Z" fill="#5D9131" />
    <path d="M16.0932 8.91519L13.0312 22.7189L13.1417 22.9799L17.1774 11.1941L16.0932 8.90515V8.91519Z" fill="#177D3B" />
    <path d="M17.8804 10.8528L18.051 11.676L21.133 11.415L21.123 10.8126L17.8804 10.8528Z" fill="#A2C964" />
    <path d="M16.0933 8.91522L17.1775 11.1941L17.8802 10.8528L16.4948 8.68433L16.0933 8.91522Z" fill="#458C34" />
    <path d="M9.43701 5.4116L9.61771 5.06023L15.5407 5L15.9222 5.39152L13.0812 14.8684L12.9005 14.9688L12.6997 14.8483L9.43701 5.4116Z" fill="#E5233E" />
    <path d="M12.6997 14.8483L12.9005 14.9688L11.7259 6.55607L9.43701 5.41162L12.6997 14.8483Z" fill="#76191C" />
    <path d="M12.8403 6.55613L12.9006 14.9688H12.9106L13.0813 14.8685L15.9223 5.3916L12.8403 6.55613Z" fill="#B41731" />
    <path d="M5.02008 10.8929L5 11.2644L12.1578 19.657L12.4088 19.6972L12.4389 19.6771L12.5694 19.4462L9.51757 9.2365L9.00558 8.88513L5.02008 10.8929Z" fill="#009EBA" />
    <path d="M12.1578 19.6569L12.4088 19.6971L7.13831 11.6658L5 11.2643L12.1578 19.6569Z" fill="#075975" />
    <path d="M7.92139 11.3647L12.439 19.677L12.5695 19.4462L9.51759 9.23645L7.92139 11.3647Z" fill="#00758E" />
  </g>
  <defs>
    <radialGradient id="paint0_radial_26_2" cx="0" cy="0" r="1" gradientUnits="userSpaceOnUse" gradientTransform="translate(13.5 34.8) scale(10.5 5.25)">
      <stop offset="0.1" stop-opacity="0.4" />
      <stop offset="1" stop-opacity="0.05" />
    </radialGradient>
    <clipPath id="clip0_26_2">
      <rect width="27" height="41" fill="white" />
    </clipPath>
  </defs>
</svg>