<svg width="27" height="41" viewBox="0 0 27 41" fill="none" xmlns="http://www.w3.org/2000/svg">
  <g clip-path="url(#clip0_27_61)">
    <path d="M13.5 40.05C19.299 40.05 24 37.6995 24 34.8C24 31.9006 19.299 29.55 13.5 29.55C7.70101 29.55 3 31.9006 3 34.8C3 37.6995 7.70101 40.05 13.5 40.05Z" fill="url(#paint0_radial_27_61)" />
    <path d="M27 13.5C27 19.07 20.25 27 14.75 34.5C14.02 35.5 12.98 35.5 12.25 34.5C6.75 27 0 19.22 0 13.5C0 6.04 6.04 0 13.5 0C20.96 0 27 6.04 27 13.5Z" fill="#E2E8F0" />
    <path opacity="0.25" d="M13.5 0C6.04 0 0 6.04 0 13.5C0 19.22 6.75 27 12.25 34.5C13 35.52 14.02 35.5 14.75 34.5C20.25 27 27 19.07 27 13.5C27 6.04 20.96 0 13.5 0ZM13.5 1C20.42 1 26 6.58 26 13.5C26 15.9 24.5 19.18 22.22 22.74C19.95 26.3 16.71 30.14 13.94 33.91C13.74 34.18 13.61 34.32 13.5 34.44C13.39 34.32 13.26 34.18 13.06 33.91C10.28 30.13 7.41 26.31 5.02 22.77C2.62 19.23 1 15.95 1 13.5C1 6.58 6.58 1 13.5 1Z" fill="black" />
    <path d="M13.5 23C18.7467 23 23 18.7467 23 13.5C23 8.25329 18.7467 4 13.5 4C8.25329 4 4 8.25329 4 13.5C4 18.7467 8.25329 23 13.5 23Z" fill="white" />
    <g clip-path="url(#clip1_27_61)">
      <path d="M7.18115 10.7539H8.06698V11.6102H7.18115V10.7539ZM8.59847 10.7539H9.45478V11.6102H8.59847V10.7539ZM7.18115 12.1122H8.03745V12.998H7.18115V12.1122ZM8.59847 12.1122H9.4843V12.998H8.59847V12.1122ZM7.18115 13.5295H8.03745V14.3858H7.18115V13.5295ZM8.59847 13.5295H9.4843V14.3858H8.59847V13.5295ZM7.18115 14.8582H8.03745V15.7441H7.18115V14.8582ZM8.59847 14.8582H9.4843V15.7441H8.59847V14.8582ZM7.18115 16.2756H8.03745V17.1319H7.18115V16.2756ZM8.59847 16.2756H9.4843V17.1319H8.59847V16.2756Z" fill="#282D35" />
      <path d="M21 9.39567H16.8957V6H10.1043V9.39567H6V18.8445H21V9.39567ZM10.1043 18.313H6.50197V9.92717H10.1043L10.1043 18.313ZM14.563 18.3425H12.437V15.2421H14.563V18.3425ZM11.935 14.7106V18.3425H10.6358V6.50197H16.3642L16.3346 18.3425H15.0945V14.7106H11.935V14.7106ZM20.4685 18.313H16.8957V9.92717H20.4685V18.313Z" fill="#282D35" />
      <path d="M17.5453 10.754H18.4016V11.6103H17.5453V10.754ZM18.9331 10.754H19.8189V11.6103H18.9331V10.754ZM17.5157 12.1122H18.4016V12.9981H17.5157V12.1122ZM18.9626 12.1122H19.8189V12.9981H18.9626V12.1122ZM17.5157 13.5296H18.4016V14.3859H17.5157V13.5296ZM18.9626 13.5296H19.8189V14.3859H18.9626V13.5296ZM17.5157 14.8583H18.4016V15.7441H17.5157V14.8583ZM18.9626 14.8583H19.8189V15.7441H18.9626V14.8583ZM17.5157 16.2756H18.4016V17.1319H17.5157V16.2756ZM18.9626 16.2756H19.8189V17.1319H18.9626V16.2756ZM11.3149 10.1634H12.2008V11.0197H11.3149V10.1634ZM14.7401 10.1634H15.626V11.0197H14.7401V10.1634ZM11.3149 11.5217H12.2008V12.4075H11.3149V11.5217ZM14.7697 11.5217H15.626V12.4075H14.7697V11.5217ZM11.3149 12.939H12.2008V13.7953H11.3149V12.939ZM14.7697 12.939H15.626V13.7953H14.7697V12.939ZM13.0275 10.1339H13.9134V11.0197H13.0275V10.1339ZM11.3149 8.77561H12.2008V9.63191H11.3149V8.77561ZM14.7401 8.77561H15.626V9.63191H14.7401V8.77561ZM13.0275 8.77561H13.9134V9.63191H13.0275V8.77561ZM11.3149 7.38782H12.2008V8.24412H11.3149V7.38782ZM14.7401 7.38782H15.626V8.24412H14.7401V7.38782ZM13.0275 7.38782H13.9134V8.24412H13.0275V7.38782ZM13.0275 11.5217H13.9134V12.378H13.0275V11.5217ZM13.0275 12.9095H13.9134V13.7953H13.0275V12.9095Z" fill="#282D35" />
    </g>
  </g>
  <defs>
    <radialGradient id="paint0_radial_27_61" cx="0" cy="0" r="1" gradientUnits="userSpaceOnUse" gradientTransform="translate(13.5 34.8) scale(10.5 5.25)">
      <stop offset="0.1" stop-opacity="0.4" />
      <stop offset="1" stop-opacity="0.05" />
    </radialGradient>
    <clipPath id="clip0_27_61">
      <rect width="27" height="41" fill="white" />
    </clipPath>
    <clipPath id="clip1_27_61">
      <rect width="15" height="12.8445" fill="white" transform="translate(6 6)" />
    </clipPath>
  </defs>
</svg>