<svg width="22" height="23" viewBox="0 0 22 23" xmlns="http://www.w3.org/2000/svg">
  <path d="M9.65039 20.6475L9.65174 20.6479L9.65217 20.6479L9.65039 20.6475Z" />
  <path d="M13.3425 19.6157C13.3241 19.7031 13.3024 19.7909 13.2778 19.8773C13.0434 20.6991 12.4471 21.39 11.6449 21.7763C11.4848 21.8536 11.3237 21.9182 11.163 21.9706C10.1801 22.2912 9.1891 22.142 8.46314 21.5286C8.08798 21.2124 7.81955 20.8026 7.67375 20.3535C7.51729 19.8717 7.50197 19.3436 7.64797 18.8366C7.80846 18.2782 8.21021 17.8082 8.74789 17.5425C8.86509 17.485 8.98309 17.4368 9.1015 17.3984C9.7751 17.1783 10.462 17.2798 10.9703 17.7055C11.2361 17.9282 11.4264 18.2168 11.5293 18.5333C11.6388 18.8706 11.6493 19.2403 11.5468 19.5958C11.4 20.1053 11.0113 20.481 10.5425 20.6329C10.2632 20.7237 9.95392 20.7349 9.65146 20.6482C9.50808 20.6077 9.40255 20.4981 9.36006 20.3668C9.33449 20.2885 9.33126 20.2009 9.35543 20.1161C9.39631 19.9735 9.50526 19.8678 9.63635 19.8253C9.71469 19.7998 9.80229 19.7965 9.88747 19.8209C10.0204 19.8592 10.1545 19.8541 10.2773 19.8143C10.4839 19.747 10.6549 19.5817 10.7198 19.3571C10.7733 19.1703 10.7679 18.9761 10.7103 18.7989C10.6563 18.6328 10.557 18.4818 10.4179 18.3654C10.1452 18.1394 9.78618 18.0824 9.37175 18.2149C9.29201 18.2407 9.21084 18.2737 9.12888 18.3142C8.80426 18.4743 8.56685 18.7534 8.47462 19.0746C8.37695 19.4137 8.38722 19.7659 8.49194 20.0879C8.5892 20.3878 8.76802 20.6606 9.01793 20.8711C9.5113 21.2867 10.1642 21.389 10.8867 21.1566C11.0132 21.1155 11.1416 21.064 11.2709 21.0016C11.8664 20.7138 12.2806 20.2325 12.4498 19.6409C12.4691 19.5738 12.4856 19.507 12.4997 19.4387C12.5931 18.9949 12.5684 18.5533 12.4349 18.1416C12.3106 17.7594 12.0927 17.4024 11.7856 17.0947C11.1098 16.4173 10.1537 16.1295 9.22635 16.3226L9.11358 16.346L9.10976 16.3468C8.93114 16.379 8.73439 16.4297 8.52657 16.4972C7.91077 16.6968 7.20032 17.0417 6.56679 17.4582L6.56759 17.4576C6.00535 17.8327 5.46809 18.0847 4.96888 18.2468C3.112 18.8493 1.79078 18.2091 1.59484 18.1042C1.55134 18.0857 1.50865 18.0661 1.46737 18.0448C1.02636 17.8202 0.682201 17.4477 0.4917 16.9851C0.470555 16.9346 0.451826 16.883 0.435112 16.8313C0.281664 16.3591 0.301205 15.8502 0.493519 15.3862C0.698317 14.8926 1.10589 14.5398 1.57892 14.3864C1.9565 14.2638 2.37819 14.2672 2.77268 14.4265C3.1563 14.5827 3.45958 14.9102 3.59852 15.3105L3.59932 15.3131L3.60919 15.3429C3.79043 15.8947 3.67666 16.4579 3.28599 16.824C3.14583 16.9563 2.9803 17.0522 2.8041 17.1094C2.52056 17.2014 2.20742 17.1938 1.92147 17.0756L1.92025 17.075C1.80023 17.0244 1.71284 16.9255 1.67579 16.8105C1.64498 16.7163 1.6478 16.6106 1.68827 16.5133C1.73822 16.3927 1.8377 16.3061 1.95308 16.2687C2.04632 16.2382 2.15224 16.2396 2.25051 16.2801C2.34274 16.3186 2.44484 16.3212 2.53788 16.291C2.59587 16.2721 2.65004 16.2407 2.69616 16.1972C2.76382 16.1329 2.80591 16.0542 2.82403 15.9559C2.84175 15.8578 2.83349 15.74 2.7908 15.6087L2.78455 15.5896L2.78496 15.5908C2.72676 15.4209 2.59728 15.2829 2.45028 15.2237C2.25011 15.1432 2.03746 15.1413 1.84435 15.2038C1.60129 15.2827 1.39346 15.4627 1.28874 15.7155C1.17517 15.9903 1.16369 16.2872 1.2537 16.5655C1.26357 16.5959 1.27485 16.6263 1.28754 16.6567C1.4128 16.9606 1.6468 17.1944 1.94866 17.3194L1.95308 17.3212L1.98731 17.338L1.99053 17.3396L1.99255 17.3406C2.03585 17.3629 3.10575 17.9453 4.70326 17.4272C5.13038 17.2884 5.59616 17.0705 6.09194 16.7401L6.09295 16.7395C6.79776 16.2771 7.56319 15.904 8.25451 15.6794C8.49576 15.6011 8.72795 15.5411 8.94624 15.5016L9.05096 15.4799C10.2638 15.2271 11.5154 15.6039 12.3954 16.4867C12.7989 16.8915 13.0897 17.3657 13.2553 17.8762C13.4347 18.4288 13.4675 19.0233 13.3425 19.6157Z" />
  <path d="M3.2407 8.81273C3.15229 8.82502 3.06329 8.84093 2.97528 8.85965C2.13958 9.03827 1.40999 9.58682 0.970787 10.3611C0.882988 10.5156 0.807475 10.672 0.744646 10.8289C0.35861 11.7881 0.440771 12.7867 1.00422 13.5523C1.2944 13.9478 1.68527 14.2432 2.12346 14.4188C2.59387 14.6073 3.11946 14.6581 3.63538 14.5465C4.20326 14.4239 4.69945 14.0547 5.0005 13.536C5.06575 13.423 5.12174 13.3084 5.16805 13.1928C5.43306 12.5358 5.37789 11.8434 4.98722 11.3078C4.78302 11.0275 4.50795 10.8182 4.19884 10.6946C3.86959 10.5627 3.50148 10.5272 3.14001 10.6056C2.62187 10.7179 2.22073 11.0804 2.03768 11.5379C1.92833 11.8106 1.89631 12.1183 1.96256 12.426C1.99317 12.5718 2.09546 12.6844 2.22374 12.7357C2.30026 12.7663 2.38726 12.7756 2.47365 12.7571C2.61884 12.7259 2.73141 12.6244 2.78256 12.4963C2.81337 12.4198 2.82244 12.3326 2.80391 12.2462C2.77451 12.1109 2.7886 11.9775 2.83673 11.8575C2.91768 11.656 3.0941 11.4965 3.32245 11.4469C3.51235 11.406 3.70566 11.4244 3.87865 11.4938C4.04075 11.5589 4.18473 11.668 4.29146 11.8146C4.49868 12.1018 4.53131 12.4641 4.37142 12.8684C4.3402 12.9462 4.30194 13.0249 4.25603 13.104C4.07459 13.4172 3.77997 13.6353 3.45334 13.7056C3.10839 13.7803 2.75759 13.7464 2.44344 13.6204C2.15084 13.5032 1.89067 13.3062 1.69715 13.043C1.31554 12.5229 1.25735 11.8646 1.53787 11.1594C1.58741 11.0359 1.64761 10.9113 1.7185 10.7864C2.04553 10.2115 2.5536 9.83068 3.15531 9.7016C3.22358 9.6869 3.29144 9.67502 3.36031 9.66536C3.80958 9.60192 4.24837 9.65629 4.65011 9.81719C5.02326 9.96681 5.36459 10.2083 5.65115 10.5353C6.28166 11.2552 6.50438 12.2285 6.24944 13.1407L6.21862 13.2514L6.21762 13.2553C6.17352 13.4313 6.10948 13.6242 6.02832 13.827C5.78768 14.4279 5.39581 15.1138 4.93788 15.7179L4.93848 15.7171C4.52647 16.2529 4.23891 16.7719 4.04358 17.2592C3.31762 19.0714 3.86758 20.4327 3.9592 20.6353C3.97471 20.6798 3.99142 20.7239 4.00995 20.7666C4.20428 21.2217 4.55286 21.59 5.00172 21.8113C5.05086 21.8357 5.101 21.858 5.15134 21.8782C5.61229 22.063 6.12117 22.0777 6.59702 21.917C7.10327 21.7459 7.48246 21.363 7.66732 20.9013C7.81534 20.5328 7.8401 20.1117 7.7078 19.7075C7.57771 19.3143 7.27142 18.9896 6.88116 18.8243L6.87854 18.8233L6.84953 18.8116C6.31126 18.5937 5.74157 18.6692 5.3501 19.0343C5.20873 19.1654 5.10201 19.3239 5.03314 19.4961C4.92218 19.7728 4.90889 20.0857 5.00756 20.3789L5.00797 20.3803C5.05046 20.5036 5.14329 20.5974 5.25546 20.6419C5.34728 20.679 5.4532 20.6832 5.55289 20.6496C5.67653 20.6077 5.76976 20.5142 5.81467 20.4019C5.85132 20.3109 5.85696 20.2051 5.82313 20.1044C5.79091 20.0096 5.79513 19.9079 5.83158 19.8169C5.85434 19.7603 5.88938 19.7085 5.9359 19.6652C6.00457 19.602 6.08592 19.5654 6.18519 19.5539C6.28407 19.5426 6.40128 19.5591 6.52935 19.6103L6.54788 19.6179L6.54667 19.6173C6.7124 19.6868 6.84128 19.8253 6.89041 19.9758C6.95727 20.181 6.94499 20.3932 6.86968 20.5815C6.77443 20.8187 6.5809 21.0141 6.32173 21.1015C6.04001 21.1963 5.74298 21.1878 5.47153 21.0793C5.44193 21.0674 5.41233 21.0539 5.38293 21.0394C5.08811 20.8938 4.87062 20.6447 4.7661 20.3352L4.76449 20.3308L4.7502 20.2955L4.74879 20.2921L4.74778 20.2901C4.72845 20.2454 4.21917 19.1389 4.84344 17.5796C5.01058 17.1628 5.25927 16.7127 5.62235 16.2403L5.62296 16.2392C6.13163 15.5671 6.55532 14.8286 6.82597 14.1538C6.92021 13.9184 6.99573 13.6908 7.0497 13.4758L7.0787 13.3729C7.41238 12.1797 7.12058 10.9056 6.29897 9.96822C5.9222 9.53829 5.46871 9.21649 4.9703 9.01673C4.43122 8.80045 3.84019 8.72755 3.2407 8.81273Z" />
  <path d="M2.81626 18.9819C2.78323 18.9892 2.43344 19.0683 2.02183 19.2441C1.61082 19.4209 1.13476 19.6906 0.855256 20.1036C0.747722 20.2633 0.69336 20.4425 0.69336 20.6197C0.693158 20.8489 0.784778 21.0742 0.958967 21.2478C1.13255 21.422 1.3579 21.5136 1.58706 21.5134C1.76427 21.5134 1.94349 21.4591 2.10318 21.3517C2.5162 21.0724 2.78605 20.5964 2.96265 20.1852C3.13845 19.7733 3.21759 19.4236 3.22484 19.3905C3.22988 19.3674 3.2321 19.345 3.2321 19.3231C3.23169 19.2262 3.1894 19.1412 3.12757 19.0792C3.06575 19.0174 2.98057 18.9749 2.88371 18.9745C2.86196 18.9747 2.83941 18.9769 2.81626 18.9819ZM1.42435 20.4868L1.42475 20.4862C1.53993 20.3136 1.73809 20.1602 1.95698 20.0371C2.08949 19.9624 2.22783 19.9 2.35933 19.8473C2.30254 19.9864 2.2363 20.1304 2.15857 20.2657C2.03452 20.4828 1.88328 20.6739 1.72077 20.7824C1.66862 20.8171 1.62672 20.8271 1.58947 20.8275C1.53409 20.8279 1.48174 20.8012 1.44408 20.7633C1.40622 20.7256 1.37924 20.6731 1.37964 20.6175C1.37984 20.5807 1.38992 20.5388 1.42435 20.4868Z" />
  <path d="M2.01758 0.731387L2.01758 12.3139C2.01758 12.5124 2.17847 12.6733 2.37703 12.6733C2.57558 12.6733 2.73649 12.5124 2.73649 12.3139L2.73649 0.731387C2.73649 0.532831 2.57558 0.371932 2.37703 0.371932C2.17847 0.371932 2.01758 0.532831 2.01758 0.731387Z" />
  <path d="M9.4873 20.3107C9.4873 20.5093 9.64821 20.6702 9.84677 20.6702L21.4293 20.6702C21.6278 20.6702 21.7887 20.5093 21.7887 20.3107C21.7887 20.1122 21.6278 19.9513 21.4293 19.9513L9.84677 19.9513C9.64821 19.9511 9.4873 20.1122 9.4873 20.3107Z" />
  <path d="M8.00587 13.651L8.26001 13.9053C8.3321 13.8334 8.42312 13.799 8.51757 13.7986C8.61181 13.799 8.70303 13.8334 8.77532 13.9055C8.84681 13.9772 8.88125 14.0684 8.88165 14.1627C8.88125 14.2571 8.84661 14.3481 8.77512 14.42C8.70303 14.4919 8.61181 14.5263 8.51757 14.5267C8.42312 14.5263 8.33209 14.4919 8.2604 14.4202C8.18851 14.3481 8.15408 14.2571 8.15368 14.1627C8.15408 14.0684 8.18851 13.9772 8.2604 13.9051L8.00587 13.651L7.75153 13.397C7.54089 13.6077 7.43417 13.8868 7.43457 14.1629C7.43417 14.4387 7.54089 14.718 7.75173 14.9287C7.96216 15.1395 8.24148 15.2463 8.51757 15.2458C8.79365 15.2463 9.07275 15.1393 9.28339 14.9287C9.49423 14.7182 9.60096 14.4389 9.60056 14.1629C9.60096 13.887 9.49423 13.6077 9.28339 13.397C9.07255 13.1864 8.79344 13.0795 8.51736 13.0799C8.24147 13.0795 7.96217 13.1862 7.75153 13.397L8.00587 13.651Z" />
</svg>