<svg width="27" height="41" viewBox="0 0 27 41" fill="none" xmlns="http://www.w3.org/2000/svg">
  <g clip-path="url(#clip0_27_39)">
    <path d="M13.5 40.05C19.299 40.05 24 37.6995 24 34.8C24 31.9006 19.299 29.55 13.5 29.55C7.70101 29.55 3 31.9006 3 34.8C3 37.6995 7.70101 40.05 13.5 40.05Z" fill="url(#paint0_radial_27_39)" />
    <path d="M27 13.5C27 19.07 20.25 27 14.75 34.5C14.02 35.5 12.98 35.5 12.25 34.5C6.75 27 0 19.22 0 13.5C0 6.04 6.04 0 13.5 0C20.96 0 27 6.04 27 13.5Z" fill="#E2E8F0" />
    <path opacity="0.25" d="M13.5 0C6.04 0 0 6.04 0 13.5C0 19.22 6.75 27 12.25 34.5C13 35.52 14.02 35.5 14.75 34.5C20.25 27 27 19.07 27 13.5C27 6.04 20.96 0 13.5 0ZM13.5 1C20.42 1 26 6.58 26 13.5C26 15.9 24.5 19.18 22.22 22.74C19.95 26.3 16.71 30.14 13.94 33.91C13.74 34.18 13.61 34.32 13.5 34.44C13.39 34.32 13.26 34.18 13.06 33.91C10.28 30.13 7.41 26.31 5.02 22.77C2.62 19.23 1 15.95 1 13.5C1 6.58 6.58 1 13.5 1Z" fill="black" />
    <path d="M13.5 23C18.7467 23 23 18.7467 23 13.5C23 8.25329 18.7467 4 13.5 4C8.25329 4 4 8.25329 4 13.5C4 18.7467 8.25329 23 13.5 23Z" fill="white" />
    <path fill-rule="evenodd" clip-rule="evenodd" d="M7 7H20V20H7V7ZM16.6183 18.0776C15.2025 18.0776 14.0477 16.7795 14.0477 15.1881V7.1667H19.8333V15.1881H19.1888C19.1888 16.7795 18.0341 18.0776 16.6183 18.0776ZM10.8459 16.9631C12.3472 16.9631 13.6118 18.1901 13.9497 19.8333H7.74224C8.08004 18.1901 9.34475 16.9631 10.8459 16.9631ZM13.1182 11.6185C13.1182 13.5873 11.2894 15.1926 9.0471 15.1926L7.16665 15.1926V7.1667H9.04699L9.04696 8.04499C11.2893 8.04489 13.1182 9.65024 13.1182 11.6185Z" fill="#00008C" />
    <path fill-rule="evenodd" clip-rule="evenodd" d="M16.6186 18.0777C15.2028 18.0777 14.048 16.7796 14.048 15.1881V7.16675H19.8337V15.1881H19.1892C19.1892 16.7796 18.0344 18.0777 16.6186 18.0777ZM10.8463 16.9632C12.3475 16.9632 13.6122 18.1902 13.95 19.8334H7.74257C8.08039 18.1902 9.34506 16.9632 10.8463 16.9632ZM13.1186 11.6186C13.1185 13.5874 11.2897 15.1927 9.04744 15.1927L7.16699 15.1927V7.16675H9.04733L9.04728 8.04502C11.2896 8.04492 13.1185 9.65028 13.1186 11.6186Z" fill="#EFB803" />
  </g>
  <defs>
    <radialGradient id="paint0_radial_27_39" cx="0" cy="0" r="1" gradientUnits="userSpaceOnUse" gradientTransform="translate(13.5 34.8) scale(10.5 5.25)">
      <stop offset="0.1" stop-opacity="0.4" />
      <stop offset="1" stop-opacity="0.05" />
    </radialGradient>
    <clipPath id="clip0_27_39">
      <rect width="27" height="41" fill="white" />
    </clipPath>
  </defs>
</svg>